<svg width="1574" height="1574" viewBox="0 0 1574 1574" fill="none" xmlns="http://www.w3.org/2000/svg">
<g clip-path="url(#clip0_201_2)">
<path d="M0 786.667V1573.33H786.667H1573.33V786.667V-4.13656e-05H786.667H0V786.667ZM1480 493.333V533.333H783.333H86.6667V493.333V453.333H783.333H1480V493.333ZM717.6 615.867C759.867 625.467 789.6 651.2 803.333 689.733C807.6 701.6 810.667 715.6 812.667 731.6L813.6 738.667H774.4H735.2L733.6 726.667C728.533 688.933 712.667 674.133 677.333 674.133C658.667 674.133 650.533 677.2 639.2 688.533C630.133 697.733 625.467 706.4 621.067 722C618.267 732.133 618.133 735.067 618 786.667C618 834.267 618.267 841.733 620.4 850C626.133 872.267 637.6 888 654.267 896.267C662.533 900.267 664.533 900.667 678.133 901.2C713.6 902.267 728.133 889.2 733.2 851.6C734 845.867 734.667 840.533 734.667 839.867C734.667 839.2 750.4 838.667 773.333 838.667H812V845.867C812 849.733 811.067 858.267 810 864.8C801.333 914.8 773.467 946.267 727.6 958C691.067 967.2 649.2 964.933 617.6 951.733C586.667 938.8 558.133 909.067 546.8 877.867C538.533 855.2 538 849.2 538 786.667C538 723.6 538.667 717.6 548 693.6C559.067 665.067 585.867 636.533 612.8 624.533C622.267 620.4 640.667 615.067 651.333 613.333C664.667 611.333 704.267 612.8 717.6 615.867ZM1316.67 614.667C1371.07 625.067 1403.47 657.6 1412.67 711.2C1413.73 717.733 1414.67 724.133 1414.67 725.467C1414.67 728 1413.2 728 1377.2 727.733L1339.73 727.333L1337.2 717.333C1334.13 705.6 1329.73 695.867 1324 689.067C1318.8 682.8 1306 676.533 1294.13 674.533C1259.73 668.8 1233.6 686.933 1223.07 724C1220.93 731.733 1220.67 738.4 1220.67 788C1220.67 837.6 1220.93 844.267 1223.07 852C1230.27 877.333 1244.13 893.467 1263.87 899.2C1273.33 902 1299.2 902 1312 899.333C1317.2 898.267 1324.8 895.733 1328.8 893.733L1336 890.267V863.067V836H1309.33H1282.67V809.333V782.667L1349.73 782.933L1416.67 783.333L1417.07 846.933L1417.33 910.4L1413.73 914.8C1408.53 920.933 1392.27 933.6 1381.6 939.867C1336.4 966.267 1267.33 971.333 1220.27 951.733C1189.33 938.8 1160.8 909.067 1149.47 877.867C1141.2 855.2 1140.67 849.2 1140.67 786.667C1140.67 733.867 1140.93 729.067 1143.47 717.333C1155.73 662.133 1196.8 622.933 1251.73 614C1265.2 611.733 1303.87 612.133 1316.67 614.667ZM250.4 636.267C308.267 816.8 320.667 854.533 321.333 853.733C321.867 853.067 332.8 819.6 345.867 779.333C358.933 738.933 376.133 685.733 384.133 660.933L398.8 616H451.333H504L503.733 786.933L503.333 958L463.733 958.4L424 958.667V909.733C424 876 425.067 839.333 427.467 792.133C429.333 754.533 430.667 722.533 430.4 721.067C430.133 719.6 413.2 767.6 392.8 827.6C372.267 887.6 353.867 941.6 351.6 947.733L347.733 958.667L320.933 958.4L294.133 958L253.467 839.067C231.067 773.6 212.667 720.267 212.4 720.4C212.267 720.667 213.867 756.933 216 801.2C218.933 860.133 220 891.6 219.733 919.733L219.333 958L179.733 958.4L140 958.667V787.333V616H192H243.867L250.4 636.267ZM999.867 619.2C1054.8 632.133 1094.13 670.8 1105.6 723.333C1107.87 733.333 1108.4 742.133 1108.93 777.067C1109.87 836.667 1107.47 855.333 1095.47 880.667C1078.67 916.267 1045.47 943.467 1007.33 953.2C989.467 957.733 971.6 958.667 906.533 958.667H844V787.2V615.867L917.067 616.4C980.267 616.8 991.333 617.2 999.867 619.2ZM1480 1086.67V1126.67H783.333H86.6667V1086.67V1046.67H783.333H1480V1086.67Z" fill="#A537FD"/>
<path d="M924 786.4V896H949.2C976.667 896 984.4 894.667 996.4 887.6C1004.67 882.667 1015.2 870.667 1020 860.8C1028 844 1028.53 838.8 1028.53 787.333C1028.67 747.067 1028.27 739.333 1026.27 731.333C1019.6 705.067 1005.73 688.667 983.867 681.333C976.8 678.933 971.2 678.267 949.733 677.733L924 676.933V786.4Z" fill="#A537FD"/>
</g>
<defs>
<clipPath id="clip0_201_2">
<rect width="1573.33" height="1573.33" fill="white"/>
</clipPath>
</defs>
</svg>
